<?xml version="1.0" encoding="UTF-8"?>
<svg width="22px" height="17px" viewBox="0 0 22 17" version="1.1" xmlns="http://www.w3.org/2000/svg" xmlns:xlink="http://www.w3.org/1999/xlink">
    <!-- Generator: Sketch 55.2 (78181) - https://sketchapp.com -->
    <title>Group 13</title>
    <desc>Created with Sketch.</desc>
    <g id="Page-1" stroke="none" stroke-width="1" fill="none" fill-rule="evenodd">
        <g id="Group-13" fill="#c9cacd">
            <path d="M20,0.5 C18.89,0.15 17.67,0 16.5,0 C14.55,0 12.45,0.4 11,1.5 C9.55,0.4 7.45,0 5.5,0 C3.55,0 1.45,0.4 0,1.5 L0,16.15 C0,16.4 0.25,16.65 0.5,16.65 C0.6,16.65 0.65,16.6 0.75,16.6 C2.1,15.95 4.05,15.5 5.5,15.5 C7.45,15.5 9.55,15.9 11,17 C12.35,16.15 14.8,15.5 16.5,15.5 C18.15,15.5 19.85,15.8 21.25,16.55 C21.35,16.6 21.4,16.6 21.5,16.6 C21.75,16.6 22,16.35 22,16.1 L22,1.5 C21.4,1.05 20.75,0.75 20,0.5 Z M20,14 C18.9,13.65 17.7,13.5 16.5,13.5 C14.8,13.5 12.35,14.15 11,15 L11,3.5 C12.35,2.65 14.8,2 16.5,2 C17.7,2 18.9,2.15 20,2.5 L20,14 Z" id="Shape" fill-rule="nonzero"></path>
            <path d="M14.01,2.5 L14.01,7.97454025 L15.01,7.19287358 L15.01,2.5 L14.01,2.5 Z" id="Rectangle" stroke="#c9cacd"></path>
            <path d="M16,2.5 L16,7.19287358 L17,7.97454025 L17,2.5 L16,2.5 Z" id="Rectangle" stroke="#c9cacd"></path>
        </g>
    </g>
</svg>