<svg id="Layer_1" data-name="Layer 1" xmlns="http://www.w3.org/2000/svg" viewBox="0 0 321.26 332.37"><defs><style>.cls-1{fill:#303030;stroke:#303030;stroke-miterlimit:10;}</style></defs><title>personal logo</title><path class="cls-1" d="M308.39,153.92c-13-17.13-33-27.06-54.19-29-.75-.07-1.49-.11-2.23-.15a77.65,77.65,0,0,0,12.65-24.36C279.12,53.34,250.28-7,194.72,1.27c-17.88,2.67-35.23,11.16-46.09,25.5h-.09c-4.89-9.22-12.66-14.71-25.17-11.33-8.69,2.35-14.61,9.32-17.29,17.48a13.44,13.44,0,0,0-1,2.15c-9.44,19.59-9.68,45-11.19,65.36-1.62,21.86-3,43.88-3.16,65.85-1.86.87-3.72,1.75-5.58,2.65-18.42,9-37,18.68-52.47,32.37-18.38,16.31-28.52,39-31.56,63-2.91,23.12,3.48,48.83,25.21,61,11.57,6.45,26.42,8.8,39,4,12.33-4.66,20.63-15,26.78-26.28,17.22-31.6,16.85-65.79,18.74-100.54q.28-5.17.58-10.36,18.91-8.8,38.08-17.51l7.92-3.59c4.12,20.65,7.21,37,9.29,48.35,1.7,9.23,3.4,18,6,30.27,1.82,8.64,3,17.79,6.33,26,3.72,14.15,17.73,23.58,31.7,26.24,15.86,3,31.08-2.12,45.22-9,23-11.19,43.07-31.23,53.83-54.46C322.09,212.08,327.09,178.64,308.39,153.92ZM201.49,28.38a33.45,33.45,0,0,1,24.15,13c-.07,0,2.11,2.78,2.54,3.45A46.51,46.51,0,0,1,231.54,51a51.87,51.87,0,0,1,3.85,14.93C237.57,86.37,229.05,106,214,119.4a150.59,150.59,0,0,1-12.09,9.69L185,136.2,175.31,91c-2.26-10.53-4.33-21.16-7-31.6-2-7.88-5.56-14.53-9.32-21.32C162.41,36.5,184.55,26.66,201.49,28.38ZM83.22,253.57c-1.3,5.5-9.53,40.35-29.19,44.1-5.38,1-12.18-.17-16.48-4.35-4.76-4.63-4.9-11.26-4.66-19.54.5-17.53,7-33.57,19.64-46.11C63,217.33,76.17,210,89.26,203.24q-.34,4.4-.68,8.8c-.37,4.92-.64,8.5-.66,8.8C87.54,226,85.75,242.88,83.22,253.57Zm56.17-104.42c-8.93,2.93-17.54,5.37-25.75,7.4q.39-20.29,1.22-41.28.8-20.06,1.95-39.46c1.15-15,3.49-26.06,5.37-30.72.85-2.12,2.55-6.35,6.58-8.23.27-.12.49-.21.63-.27,1.15,1,2.62,4.59,3,5.39,1.1,2.19,2.63,5.85,4.74,14.55,1.3,5.38,2,9.28,2,9.28,2.89,16.27,4.1,24.45,5.17,30.5l8.5,48.14Q146.35,146.86,139.39,149.15Zm144.48,64.13c-5.24,17.38-17.5,32.88-32.19,42.77-6.63,4.46-12.27,7.83-18.88,10.08a28.94,28.94,0,0,1-7.37,1.94,23.84,23.84,0,0,1-8.6-.79,17.8,17.8,0,0,1-3.16-2.54,19.68,19.68,0,0,1-4.91-9.2,235.11,235.11,0,0,1-4.63-23.93c-.83-6.17-2.23-12.25-3.31-18.38-1.82-10.39-5-27.09-11-54.63l5-1.58,5-1.55a98.36,98.36,0,0,1,12.29-2.74c4.06-.76,8.13-1.4,12.23-1.8a117.07,117.07,0,0,1,12.39-.37c25.1.91,38,14.21,38,14.21C291.24,181.81,285.09,209.23,283.87,213.28Z"/></svg>
