<svg width="20" height="21" viewBox="0 0 20 21" fill="none" xmlns="http://www.w3.org/2000/svg">
<path d="M18.3051 9.79727C17.5745 8.81499 16.4506 8.24558 15.2598 8.13434C15.2176 8.13033 15.176 8.12803 15.1344 8.12574C15.4508 7.70689 15.6915 7.23388 15.8453 6.72888C16.6602 4.02978 15.0395 0.569737 11.9171 1.04396C10.9123 1.19706 9.93724 1.6839 9.32693 2.50619H9.32187C9.04707 1.97749 8.61041 1.66268 7.90737 1.8565C7.41901 1.99125 7.08632 2.39093 6.93571 2.85884C6.91345 2.89817 6.89465 2.93943 6.87951 2.98213C6.349 4.10547 6.33551 5.56254 6.25065 6.73003C6.15961 7.98353 6.08206 9.24621 6.07307 10.506C5.96854 10.5559 5.86401 10.6064 5.75948 10.658C4.72432 11.1741 3.68016 11.7291 2.81078 12.5141C1.77786 13.4494 1.20801 14.7505 1.03717 16.1267C0.873632 17.4525 1.23274 18.9267 2.45392 19.6246C3.10413 19.9945 3.93867 20.1292 4.64564 19.854C5.33856 19.5868 5.805 18.9938 6.15062 18.347C7.11835 16.535 7.09756 14.5745 7.20377 12.5818C7.21426 12.3842 7.22513 12.1862 7.23637 11.9877C7.94484 11.6513 8.65818 11.3166 9.37639 10.9837L9.82147 10.7778C10.053 11.9619 10.2267 12.8995 10.3436 13.5503C10.4391 14.0796 10.5346 14.5825 10.6807 15.2861C10.783 15.7815 10.8493 16.3062 11.0365 16.777C11.2455 17.5884 12.0329 18.1291 12.818 18.2816C13.7093 18.4537 14.5646 18.1601 15.3592 17.7656C16.6518 17.1239 17.7797 15.9748 18.3844 14.6427C19.075 13.1323 19.356 11.2148 18.3051 9.79727ZM12.2976 2.59851C12.5626 2.61785 12.8205 2.69429 13.0545 2.82278C13.2884 2.95127 13.493 3.1289 13.6547 3.34396C13.6508 3.34396 13.7733 3.50337 13.7975 3.54179C13.8691 3.6547 13.9322 3.77297 13.9863 3.89559C14.0998 4.16838 14.1728 4.45694 14.2027 4.75171C14.3252 5.92379 13.8464 7.04942 13.0006 7.81781C12.7836 8.0148 12.5568 8.20026 12.3212 8.37346L11.3709 8.78116L10.8263 6.18929C10.6993 5.58547 10.583 4.97592 10.4329 4.37727C10.3205 3.92541 10.1204 3.54409 9.90914 3.15473C10.1013 3.06413 11.3456 2.49988 12.2976 2.59851ZM5.65102 15.5114C5.57797 15.8268 5.11546 17.8252 4.0106 18.0402C3.70826 18.0976 3.32611 18.0305 3.08446 17.7908C2.81696 17.5253 2.80909 17.1451 2.82258 16.6703C2.85068 15.6651 3.21596 14.7453 3.92631 14.0263C4.5147 13.4333 5.25483 13.013 5.99046 12.6254C5.97772 12.7936 5.96498 12.9618 5.95224 13.13C5.93145 13.4121 5.91628 13.6174 5.91515 13.6346C5.8938 13.9305 5.7932 14.8984 5.65102 15.5114ZM8.80766 9.52375C8.30581 9.69176 7.82195 9.83167 7.36056 9.94808C7.37518 9.17243 7.39803 8.3834 7.42913 7.58099C7.4591 6.81413 7.49563 6.05989 7.53871 5.31826C7.60334 4.45812 7.73484 3.82392 7.8405 3.5567C7.88826 3.43513 7.9838 3.19258 8.21028 3.08477C8.22545 3.07789 8.23781 3.07273 8.24568 3.06929C8.31031 3.12663 8.39292 3.33249 8.41428 3.37837C8.47609 3.50395 8.56208 3.71382 8.68066 4.2127C8.75371 4.5212 8.79305 4.74483 8.79305 4.74483C8.95546 5.67779 9.02346 6.14685 9.0836 6.49378L9.56128 9.25424C9.31963 9.34637 9.06842 9.4362 8.80766 9.52375ZM16.9271 13.2011C16.6327 14.1977 15.9437 15.0865 15.1181 15.6536C14.7455 15.9094 14.4286 16.1026 14.0571 16.2317C13.9245 16.2872 13.7852 16.3246 13.6429 16.3429C13.4805 16.3579 13.3167 16.3426 13.1596 16.2976C13.0952 16.2561 13.0356 16.2072 12.982 16.1519C12.8453 16.0046 12.7499 15.8224 12.7061 15.6244C12.5962 15.1719 12.5093 14.7139 12.4459 14.2522C12.3993 13.8984 12.3206 13.5498 12.2599 13.1982C12.1576 12.6025 11.9789 11.6448 11.6417 10.0656L11.9227 9.97503L12.2037 9.88615C12.4304 9.81878 12.6611 9.7663 12.8944 9.72903C13.1225 9.68545 13.3513 9.64875 13.5817 9.62581C13.8132 9.6062 14.0457 9.59912 14.278 9.6046C15.6885 9.65678 16.4135 10.4194 16.4135 10.4194C17.3413 11.3965 16.9957 12.9689 16.9271 13.2011Z" fill="#3C3838" stroke="#3C3838" stroke-miterlimit="10"/>
</svg>
