<?xml version="1.0" encoding="UTF-8" standalone="no"?>
<svg width="32px" height="32px" viewBox="0 0 32 32" version="1.1" xmlns="http://www.w3.org/2000/svg" xmlns:xlink="http://www.w3.org/1999/xlink">
    <!-- Generator: Sketch 49.1 (51147) - http://www.bohemiancoding.com/sketch -->
    <title>Group 2</title>
    <desc>Created with Sketch.</desc>
    <defs></defs>
    <g id="Page-1" stroke="none" stroke-width="1" fill="none" fill-rule="evenodd">
        <g id="Group-2" fill="#93D9FF">
            <path d="M15.6283,13.7783 C14.4963,11.7653 13.2753,10.0733 13.0953,9.8263 C11.1833,10.7283 9.7543,12.4903 9.3113,14.6113 C9.6163,14.6153 12.4323,14.6273 15.6283,13.7783" id="Fill-188"></path>
            <path d="M16.4777,16.0701 C16.5667,16.0411 16.6567,16.0141 16.7467,15.9891 C16.5757,15.6011 16.3887,15.2121 16.1927,14.8291 C12.7807,15.8501 9.4697,15.8081 9.1707,15.8021 C9.1677,15.8711 9.1667,15.9401 9.1667,16.0101 C9.1667,17.7651 9.8317,19.3681 10.9237,20.5791 C11.0777,20.3141 12.9537,17.2091 16.4777,16.0701" id="Fill-189"></path>
            <path d="M20.5297,10.899 C19.3227,9.828 17.7367,9.177 15.9997,9.177 C15.4487,9.177 14.9127,9.243 14.3987,9.367 C14.5877,9.62 15.8287,11.31 16.9487,13.367 C19.3777,12.457 20.4067,11.074 20.5297,10.899" id="Fill-190"></path>
            <path d="M17.1664,17.134 C13.3124,18.477 11.9284,21.15 11.8054,21.401 C12.9644,22.305 14.4204,22.844 16.0004,22.844 C16.9464,22.844 17.8484,22.65 18.6694,22.301 C18.5674,21.701 18.1704,19.612 17.2114,17.119 C17.1964,17.124 17.1814,17.129 17.1664,17.134" id="Fill-191"></path>
            <path d="M16,24 C11.589,24 8,20.411 8,16 C8,11.589 11.589,8 16,8 C20.411,8 24,11.589 24,16 C24,20.411 20.411,24 16,24 M16,0 C7.163,0 0,7.163 0,16 C0,24.837 7.163,32 16,32 C24.837,32 32,24.837 32,16 C32,7.163 24.837,0 16,0" id="Fill-192"></path>
            <path d="M17.4737,14.3835 C17.6327,14.7095 17.7847,15.0405 17.9267,15.3735 C17.9777,15.4915 18.0267,15.6085 18.0747,15.7255 C20.3477,15.4405 22.6067,15.8985 22.8327,15.9455 C22.8177,14.3335 22.2407,12.8525 21.2897,11.6895 C21.1457,11.8845 20.0007,13.3525 17.4737,14.3835" id="Fill-193"></path>
            <path d="M18.4905,16.803 C19.3845,19.259 19.7475,21.259 19.8175,21.675 C21.3505,20.638 22.4425,18.996 22.7465,17.095 C22.5135,17.021 20.6315,16.46 18.4905,16.803" id="Fill-194"></path>
        </g>
    </g>
</svg>