<?xml version="1.0" encoding="UTF-8" standalone="no"?>
<svg width="32px" height="32px" viewBox="0 0 32 32" version="1.1" xmlns="http://www.w3.org/2000/svg" xmlns:xlink="http://www.w3.org/1999/xlink">
    <!-- Generator: Sketch 49.1 (51147) - http://www.bohemiancoding.com/sketch -->
    <title>Group</title>
    <desc>Created with Sketch.</desc>
    <defs></defs>
    <g id="Page-1" stroke="none" stroke-width="1" fill="none" fill-rule="evenodd">
        <g id="Group">
            <path d="M24,16.604 C24,17.899 23.84,19.194 23.84,19.194 C23.84,19.194 23.684,20.296 23.204,20.782 C22.596,21.419 21.914,21.422 21.601,21.459 C19.362,21.621 16,21.626 16,21.626 C16,21.626 11.84,21.588 10.56,21.466 C10.204,21.399 9.404,21.419 8.796,20.782 C8.316,20.296 8.16,19.194 8.16,19.194 C8.16,19.194 8,17.899 8,16.604 L8,15.39 C8,14.095 8.16,12.801 8.16,12.801 C8.16,12.801 8.316,11.698 8.796,11.212 C9.404,10.575 10.086,10.572 10.399,10.535 C12.638,10.373 15.997,10.373 15.997,10.373 L16.003,10.373 C16.003,10.373 19.362,10.373 21.601,10.535 C21.914,10.572 22.596,10.575 23.204,11.212 C23.684,11.698 23.84,12.801 23.84,12.801 C23.84,12.801 24,14.095 24,15.39 L24,16.604 Z M16,0 C7.163,0 0,7.163 0,16 C0,24.836 7.163,32 16,32 C24.837,32 32,24.836 32,16 C32,7.163 24.837,0 16,0 L16,0 Z" id="Fill-207-Copy" fill="#93D9FF"></path>
            <path d="M16,5 L26,10.9154549 C24.8863273,12.3305134 23.6036575,13.5337254 22.1519904,14.5250909 C20.7003233,15.5164563 18.6496598,16.127426 16,16.358 C12.4025766,15.9462235 10.0912477,15.2455837 9.06601349,14.2560805 C8.04077925,13.2665774 7.01877475,12.1530355 6,10.9154549 L16,5 Z" id="Triangle" stroke="#93D9FF" stroke-width="1.5" stroke-linecap="round" stroke-linejoin="round" transform="translate(16.000000, 10.679000) scale(1, -1) translate(-16.000000, -10.679000) "></path>
        </g>
    </g>
</svg>