<?xml version="1.0" encoding="UTF-8" standalone="no"?>
<svg width="32px" height="32px" viewBox="0 0 32 32" version="1.1" xmlns="http://www.w3.org/2000/svg" xmlns:xlink="http://www.w3.org/1999/xlink">
    <!-- Generator: Sketch 49.1 (51147) - http://www.bohemiancoding.com/sketch -->
    <title>Group 4</title>
    <desc>Created with Sketch.</desc>
    <defs></defs>
    <g id="Page-1" stroke="none" stroke-width="1" fill="none" fill-rule="evenodd">
        <g id="Group-4" fill="#EAD2DC">
            <path d="M24,23.9854 L20.685,23.9854 L20.685,18.7974 C20.685,17.5604 20.663,15.9694 18.962,15.9694 C17.237,15.9694 16.974,17.3174 16.974,18.7094 L16.974,23.9854 L13.662,23.9854 L13.662,13.3174 L16.84,13.3174 L16.84,14.7764 L16.886,14.7764 C17.328,13.9374 18.41,13.0524 20.023,13.0524 C23.38,13.0524 24,15.2614 24,18.1344 L24,23.9854 Z M9.924,11.8604 C8.859,11.8604 8,10.9984 8,9.9374 C8,8.8764 8.859,8.0144 9.924,8.0144 C10.984,8.0144 11.845,8.8764 11.845,9.9374 C11.845,10.9984 10.984,11.8604 9.924,11.8604 L9.924,11.8604 Z M11.582,23.9854 L8.263,23.9854 L8.263,13.3174 L11.582,13.3174 L11.582,23.9854 Z M16,0.0004 C7.163,0.0004 0,7.1634 0,16.0004 C0,24.8364 7.163,32.0004 16,32.0004 C24.837,32.0004 32,24.8364 32,16.0004 C32,7.1634 24.837,0.0004 16,0.0004 L16,0.0004 Z" id="Fill-209"></path>
        </g>
    </g>
</svg>
