<?xml version="1.0" encoding="UTF-8" standalone="no"?>
<svg width="32px" height="32px" viewBox="0 0 32 32" version="1.1" xmlns="http://www.w3.org/2000/svg" xmlns:xlink="http://www.w3.org/1999/xlink">
    <!-- Generator: Sketch 49.1 (51147) - http://www.bohemiancoding.com/sketch -->
    <title>Group 3</title>
    <desc>Created with Sketch.</desc>
    <defs></defs>
    <g id="Page-1" stroke="none" stroke-width="1" fill="none" fill-rule="evenodd">
        <g id="Group-3" fill="#93D9FF">
            <path d="M17.2345,19.5633 C16.2425,19.5633 15.3085,19.0273 14.9895,18.4173 C14.9895,18.4173 14.4555,20.5353 14.3435,20.9443 C13.9455,22.3883 12.7745,23.8333 12.6835,23.9513 C12.6205,24.0343 12.4805,24.0083 12.4655,23.8993 C12.4405,23.7153 12.1415,21.8923 12.4935,20.4063 C12.6695,19.6603 13.6755,15.3983 13.6755,15.3983 C13.6755,15.3983 13.3825,14.8113 13.3825,13.9443 C13.3825,12.5823 14.1715,11.5653 15.1545,11.5653 C15.9905,11.5653 16.3935,12.1933 16.3935,12.9453 C16.3935,13.7853 15.8585,15.0423 15.5825,16.2063 C15.3515,17.1813 16.0715,17.9763 17.0335,17.9763 C18.7735,17.9763 19.9465,15.7403 19.9465,13.0903 C19.9465,11.0763 18.5905,9.5683 16.1225,9.5683 C13.3355,9.5683 11.5975,11.6473 11.5975,13.9703 C11.5975,14.7703 11.8345,15.3353 12.2045,15.7723 C12.3745,15.9733 12.3985,16.0543 12.3365,16.2843 C12.2915,16.4543 12.1915,16.8603 12.1485,17.0223 C12.0875,17.2553 11.8995,17.3383 11.6885,17.2523 C10.4055,16.7283 9.8065,15.3213 9.8065,13.7413 C9.8065,11.1303 12.0085,8.0003 16.3745,8.0003 C19.8845,8.0003 22.1935,10.5383 22.1935,13.2653 C22.1935,16.8703 20.1885,19.5633 17.2345,19.5633 M16.0005,0.0003 C7.1635,0.0003 0.0005,7.1633 0.0005,16.0003 C0.0005,24.8363 7.1635,32.0003 16.0005,32.0003 C24.8365,32.0003 32.0005,24.8363 32.0005,16.0003 C32.0005,7.1633 24.8365,0.0003 16.0005,0.0003" id="Fill-222"></path>
        </g>
    </g>
</svg>